<svg id="instagram_" data-name="instagram&apos;" xmlns="http://www.w3.org/2000/svg" width="37" height="37" viewBox="0 0 37 37">
  <path id="af2da8f3726c5aa836b9ea2eeab70e0c" d="M17.34,5.587h0a1.245,1.245,0,1,0,1.2,1.244A1.223,1.223,0,0,0,17.34,5.587ZM21.94,8.1a8.124,8.124,0,0,0-.46-2.519,5.142,5.142,0,0,0-1.16-1.835,4.687,4.687,0,0,0-1.77-1.192,7.074,7.074,0,0,0-2.43-.487C15.06,2,14.72,2,12,2s-3.06,0-4.12.062a7.074,7.074,0,0,0-2.43.487A4.767,4.767,0,0,0,3.68,3.742,4.894,4.894,0,0,0,2.53,5.576,7.812,7.812,0,0,0,2.06,8.1C2,9.194,2,9.547,2,12.367s0,3.172.06,4.271a7.812,7.812,0,0,0,.47,2.519,4.894,4.894,0,0,0,1.15,1.835,4.767,4.767,0,0,0,1.77,1.192,7.074,7.074,0,0,0,2.43.487c1.06.062,1.4.062,4.12.062s3.06,0,4.12-.062a7.074,7.074,0,0,0,2.43-.487,4.687,4.687,0,0,0,1.77-1.192,5.048,5.048,0,0,0,1.16-1.835,8.124,8.124,0,0,0,.46-2.519c0-1.1.06-1.451.06-4.271S22,9.194,21.94,8.1Zm-1.8,8.418a6.006,6.006,0,0,1-.34,1.928,3.4,3.4,0,0,1-1.9,1.97,5.434,5.434,0,0,1-1.86.352c-1,.052-1.37.062-4,.062s-3,0-4-.062a5.545,5.545,0,0,1-1.94-.311A3.268,3.268,0,0,1,5,19.675a3.125,3.125,0,0,1-.74-1.192,5.924,5.924,0,0,1-.4-1.97c0-1.037-.06-1.42-.06-4.147s0-3.11.06-4.147a5.93,5.93,0,0,1,.35-1.97A3.109,3.109,0,0,1,5,5.11a3.148,3.148,0,0,1,1.1-.829A5.549,5.549,0,0,1,8,3.928c1,0,1.37-.062,4-.062s3,0,4,.062a5.434,5.434,0,0,1,1.86.352,3.056,3.056,0,0,1,1.19.829,3.179,3.179,0,0,1,.75,1.14,6.007,6.007,0,0,1,.34,1.97c.05,1.037.06,1.42.06,4.147S20.19,15.477,20.14,16.513ZM12,7.049a5.227,5.227,0,0,0-5.12,5.325,5.226,5.226,0,0,0,5.133,5.311,5.227,5.227,0,0,0,5.127-5.318,5.408,5.408,0,0,0-1.5-3.767A5.029,5.029,0,0,0,12,7.049Zm0,8.77a3.454,3.454,0,0,1,0-6.9,3.454,3.454,0,0,1,0,6.9Z" transform="translate(6.5 5.5)" stroke="#000" stroke-width="0.25"/>
  <g id="Ellipse_84" data-name="Ellipse 84" fill="none" stroke="#000" stroke-width="1">
    <circle cx="18.5" cy="18.5" r="18.5" stroke="none"/>
    <circle cx="18.5" cy="18.5" r="18" fill="none"/>
  </g>
</svg>
