<svg id="twitter" xmlns="http://www.w3.org/2000/svg" width="37" height="37" viewBox="0 0 37 37">
  <g id="Path_43" data-name="Path 43" fill="none">
    <path d="M18.5,0A18.5,18.5,0,1,1,0,18.5,18.5,18.5,0,0,1,18.5,0Z" stroke="none"/>
    <path d="M 18.5 1 C 13.82558059692383 1 9.430940628051758 2.820320129394531 6.125629425048828 6.125629425048828 C 2.820320129394531 9.430940628051758 1 13.82558059692383 1 18.5 C 1 23.17441940307617 2.820320129394531 27.56906127929688 6.125629425048828 30.87437057495117 C 9.430940628051758 34.17967987060547 13.82558059692383 36 18.5 36 C 23.17441940307617 36 27.56906127929688 34.17967987060547 30.87437057495117 30.87437057495117 C 34.17967987060547 27.56906127929688 36 23.17441940307617 36 18.5 C 36 13.82558059692383 34.17967987060547 9.430940628051758 30.87437057495117 6.125629425048828 C 27.56906127929688 2.820320129394531 23.17441940307617 1 18.5 1 M 18.5 0 C 28.71726989746094 0 37 8.282730102539062 37 18.5 C 37 28.71726989746094 28.71726989746094 37 18.5 37 C 8.282730102539062 37 0 28.71726989746094 0 18.5 C 0 8.282730102539062 8.282730102539062 0 18.5 0 Z" stroke="none" fill="#000"/>
  </g>
  <path id="d541cbb61d8b28b546aec1d396c3e912" d="M20.839,3.822a.9.9,0,0,0-1.363-.775,6.748,6.748,0,0,1-1.69.715,4.648,4.648,0,0,0-3.044-1.121A4.72,4.72,0,0,0,10.03,7.21,9.953,9.953,0,0,1,3.883,3.67a.913.913,0,0,0-.774-.33.9.9,0,0,0-.708.451,4.759,4.759,0,0,0-.218,4.3l0,0a.939.939,0,0,0-.447.8,2.744,2.744,0,0,0,.024.4,4.678,4.678,0,0,0,1.415,2.988.9.9,0,0,0-.06.694,4.7,4.7,0,0,0,2.131,2.636,6.734,6.734,0,0,1-3.239.4.9.9,0,0,0-.6,1.654,11.676,11.676,0,0,0,6.324,1.86,11.537,11.537,0,0,0,11.245-8.447,11.567,11.567,0,0,0,.483-3.29c0-.059,0-.12,0-.181a5.205,5.205,0,0,0,1.382-3.79Zm-2.983,2.9a.9.9,0,0,0-.211.633c.009.149.008.3.008.44a9.765,9.765,0,0,1-.41,2.78,9.639,9.639,0,0,1-9.514,7.153,9.868,9.868,0,0,1-2.3-.271,8.552,8.552,0,0,0,2.654-1.411.9.9,0,0,0-.543-1.611,2.894,2.894,0,0,1-2-.843q.2-.038.4-.1a.9.9,0,0,0-.072-1.753,2.885,2.885,0,0,1-2.03-1.557,4.781,4.781,0,0,0,.492.041A.921.921,0,0,0,5.221,9.6.9.9,0,0,0,4.86,8.572,2.883,2.883,0,0,1,3.575,6.16c0-.06,0-.12.005-.179a11.74,11.74,0,0,0,7.406,3.139.921.921,0,0,0,.737-.323.9.9,0,0,0,.186-.783,2.848,2.848,0,0,1-.078-.657,2.914,2.914,0,0,1,2.911-2.911,2.873,2.873,0,0,1,2.115.921.9.9,0,0,0,.831.269,8.364,8.364,0,0,0,1.093-.291,6.028,6.028,0,0,1-.926,1.375Z" transform="translate(7.583 7.414)"/>
</svg>
